<?xml version="1.0" encoding="utf-8"?><svg viewBox="0 0 33 32" xmlns="http://www.w3.org/2000/svg" xmlns:xlink="http://www.w3.org/1999/xlink"><style>:root>svg{display:none}:root>svg:target{display:block}</style><svg fill="none" viewBox="0 0 12 17" id="arrow" xmlns="http://www.w3.org/2000/svg"><path d="M12 8.51L.75 16.744V.274L12 8.509z" fill="#2A5FCB"/></svg><svg fill="none" viewBox="0 0 33 32" id="download" xmlns="http://www.w3.org/2000/svg"><circle cx="16.286" cy="16" r="15" stroke="#27AE60" stroke-width="2"/><path d="M24.045 16.665a.803.803 0 000-1.147.81.81 0 00-1.135 0l-5.815 5.815V8.803A.799.799 0 0016.291 8a.808.808 0 00-.814.803v12.53l-5.804-5.815a.823.823 0 00-1.147 0 .803.803 0 000 1.147l7.192 7.191a.79.79 0 001.135 0l7.192-7.191z" fill="currentColor"/></svg><svg fill="none" viewBox="0 0 24 32" id="guide" xmlns="http://www.w3.org/2000/svg"><path d="M23.228 8.343l-8-8a1.038 1.038 0 00-.8-.343H3A2.293 2.293 0 00.714 2.286v27.428A2.292 2.292 0 003 32h18.285a2.292 2.292 0 002.286-2.286V9.144a1.037 1.037 0 00-.343-.8zm-8.8-5.6l6.4 6.4h-6.4v-6.4zm6.857 26.971H3V2.286h9.143v6.857a2.293 2.293 0 002.285 2.286h6.857v18.285z" fill="currentColor"/></svg><svg fill="none" viewBox="0 0 12 12" id="marker" xmlns="http://www.w3.org/2000/svg"><circle cx="6" cy="6" r="6" fill="currentColor"/></svg><svg fill="none" viewBox="0 0 25 24" id="search" xmlns="http://www.w3.org/2000/svg"><path d="M9.074 0c2.438 0 4.65.964 6.238 2.552 1.645 1.588 2.609 3.8 2.609 6.238a8.395 8.395 0 01-1.588 4.934l7.43 7.656c.283.284.453.68.396 1.078 0 .397-.17.794-.454 1.134-.34.284-.737.454-1.134.397-.397 0-.794-.113-1.134-.454l-7.316-7.542c-1.474.964-3.176 1.531-5.047 1.531-2.496 0-4.707-.964-6.295-2.552s-2.61-3.8-2.61-6.182c0-2.438 1.022-4.65 2.61-6.238C4.367.964 6.579 0 9.074 0zm6.522 14.688c-.114.057-.17.17-.284.284-.113.057-.17.17-.284.284l7.316 7.485a.43.43 0 00.227.114.433.433 0 00.284-.114c.113-.056.113-.17.113-.283 0-.113 0-.17-.057-.284l-7.315-7.486zM14.518 3.346c-1.361-1.361-3.346-2.212-5.444-2.212-2.155 0-4.14.85-5.501 2.212-1.418 1.418-2.269 3.29-2.269 5.444 0 2.099.85 3.97 2.269 5.388 1.36 1.361 3.346 2.212 5.5 2.212 2.099 0 4.084-.85 5.445-2.212 1.418-1.418 2.325-3.29 2.325-5.388 0-2.155-.907-4.026-2.325-5.444z" fill="currentColor"/></svg><svg fill="none" viewBox="0 0 20 20" id="tippy" xmlns="http://www.w3.org/2000/svg"><path d="M10 0C4.473 0 0 4.473 0 10s4.473 10 10 10 10-4.473 10-10S15.527 0 10 0zm0 18.438A8.433 8.433 0 011.562 10 8.433 8.433 0 0110 1.562 8.433 8.433 0 0118.438 10 8.433 8.433 0 0110 18.438z" fill="currentColor"/><path d="M10 8.372a.781.781 0 00-.781.782v5.03a.781.781 0 101.562 0v-5.03A.781.781 0 0010 8.372zM10 7.416a1.055 1.055 0 100-2.11 1.055 1.055 0 000 2.11z" fill="currentColor"/></svg></svg>